<mxfile host="app.diagrams.net" modified="2023-02-07T02:03:34.209Z" agent="5.0 (Windows NT 10.0; Win64; x64) AppleWebKit/537.36 (KHTML, like Gecko) Chrome/109.0.0.0 Safari/537.36" etag="9sfFnalhdF4DANE46zBB" version="20.8.17" type="github" pages="2">
  <diagram name="페이지-1" id="kmOCGzDiKC8r4Smnca_1">
    <mxGraphModel dx="1816" dy="521" grid="1" gridSize="10" guides="1" tooltips="1" connect="1" arrows="1" fold="1" page="1" pageScale="1" pageWidth="827" pageHeight="1169" math="0" shadow="0">
      <root>
        <mxCell id="0" />
        <mxCell id="1" parent="0" />
        <mxCell id="FqQMGIi-P3rt23NI9rXm-1" value="DB" style="shape=cylinder3;whiteSpace=wrap;html=1;boundedLbl=1;backgroundOutline=1;size=15;" vertex="1" parent="1">
          <mxGeometry x="660" y="360" width="90" height="80" as="geometry" />
        </mxCell>
        <mxCell id="FqQMGIi-P3rt23NI9rXm-2" value="DAO" style="whiteSpace=wrap;html=1;aspect=fixed;" vertex="1" parent="1">
          <mxGeometry x="530" y="360" width="80" height="80" as="geometry" />
        </mxCell>
        <mxCell id="FqQMGIi-P3rt23NI9rXm-3" value="Service" style="rounded=0;whiteSpace=wrap;html=1;" vertex="1" parent="1">
          <mxGeometry x="400" y="360" width="80" height="80" as="geometry" />
        </mxCell>
        <mxCell id="FqQMGIi-P3rt23NI9rXm-4" value="Controller" style="rounded=0;whiteSpace=wrap;html=1;" vertex="1" parent="1">
          <mxGeometry x="270" y="360" width="80" height="80" as="geometry" />
        </mxCell>
        <mxCell id="FqQMGIi-P3rt23NI9rXm-5" value="JSP" style="rounded=0;whiteSpace=wrap;html=1;" vertex="1" parent="1">
          <mxGeometry x="30" y="530" width="80" height="80" as="geometry" />
        </mxCell>
        <mxCell id="FqQMGIi-P3rt23NI9rXm-6" value="DS" style="rounded=0;whiteSpace=wrap;html=1;" vertex="1" parent="1">
          <mxGeometry x="100" y="350" width="80" height="90" as="geometry" />
        </mxCell>
        <mxCell id="FqQMGIi-P3rt23NI9rXm-7" value="Internal&lt;br&gt;Resource&lt;br&gt;ViewResolver" style="rounded=0;whiteSpace=wrap;html=1;" vertex="1" parent="1">
          <mxGeometry x="140" y="530" width="80" height="80" as="geometry" />
        </mxCell>
        <mxCell id="FqQMGIi-P3rt23NI9rXm-9" value="" style="endArrow=classic;html=1;rounded=0;entryX=0.003;entryY=0.444;entryDx=0;entryDy=0;exitX=1;exitY=0.5;exitDx=0;exitDy=0;entryPerimeter=0;" edge="1" parent="1" source="FqQMGIi-P3rt23NI9rXm-6" target="FqQMGIi-P3rt23NI9rXm-4">
          <mxGeometry width="50" height="50" relative="1" as="geometry">
            <mxPoint x="240" y="400" as="sourcePoint" />
            <mxPoint x="290" y="350" as="targetPoint" />
          </mxGeometry>
        </mxCell>
        <mxCell id="FqQMGIi-P3rt23NI9rXm-10" value="" style="endArrow=classic;html=1;rounded=0;entryX=0;entryY=0.5;entryDx=0;entryDy=0;exitX=1;exitY=0.5;exitDx=0;exitDy=0;" edge="1" parent="1" source="FqQMGIi-P3rt23NI9rXm-4" target="FqQMGIi-P3rt23NI9rXm-3">
          <mxGeometry width="50" height="50" relative="1" as="geometry">
            <mxPoint x="370" y="400" as="sourcePoint" />
            <mxPoint x="420" y="350" as="targetPoint" />
          </mxGeometry>
        </mxCell>
        <mxCell id="FqQMGIi-P3rt23NI9rXm-11" value="" style="endArrow=classic;html=1;rounded=0;entryX=0;entryY=0.5;entryDx=0;entryDy=0;exitX=1;exitY=0.5;exitDx=0;exitDy=0;" edge="1" parent="1" source="FqQMGIi-P3rt23NI9rXm-3" target="FqQMGIi-P3rt23NI9rXm-2">
          <mxGeometry width="50" height="50" relative="1" as="geometry">
            <mxPoint x="500" y="400" as="sourcePoint" />
            <mxPoint x="550" y="350" as="targetPoint" />
          </mxGeometry>
        </mxCell>
        <mxCell id="FqQMGIi-P3rt23NI9rXm-12" value="" style="endArrow=classic;html=1;rounded=0;entryX=0;entryY=0.5;entryDx=0;entryDy=0;entryPerimeter=0;exitX=1;exitY=0.5;exitDx=0;exitDy=0;" edge="1" parent="1" source="FqQMGIi-P3rt23NI9rXm-2" target="FqQMGIi-P3rt23NI9rXm-1">
          <mxGeometry width="50" height="50" relative="1" as="geometry">
            <mxPoint x="630" y="400" as="sourcePoint" />
            <mxPoint x="680" y="350" as="targetPoint" />
          </mxGeometry>
        </mxCell>
        <mxCell id="FqQMGIi-P3rt23NI9rXm-13" value="" style="endArrow=classic;html=1;rounded=0;exitX=0;exitY=0;exitDx=0;exitDy=52.5;exitPerimeter=0;" edge="1" parent="1" source="FqQMGIi-P3rt23NI9rXm-1">
          <mxGeometry relative="1" as="geometry">
            <mxPoint x="380" y="519.66" as="sourcePoint" />
            <mxPoint x="610" y="420" as="targetPoint" />
          </mxGeometry>
        </mxCell>
        <mxCell id="FqQMGIi-P3rt23NI9rXm-14" value="" style="shape=message;html=1;outlineConnect=0;" vertex="1" parent="FqQMGIi-P3rt23NI9rXm-13">
          <mxGeometry width="20" height="14" relative="1" as="geometry">
            <mxPoint x="-10" y="-7" as="offset" />
          </mxGeometry>
        </mxCell>
        <mxCell id="FqQMGIi-P3rt23NI9rXm-15" value="" style="endArrow=classic;html=1;rounded=0;exitX=0;exitY=0.75;exitDx=0;exitDy=0;entryX=1;entryY=0.75;entryDx=0;entryDy=0;" edge="1" parent="1" source="FqQMGIi-P3rt23NI9rXm-2" target="FqQMGIi-P3rt23NI9rXm-3">
          <mxGeometry relative="1" as="geometry">
            <mxPoint x="460" y="510" as="sourcePoint" />
            <mxPoint x="480" y="425" as="targetPoint" />
          </mxGeometry>
        </mxCell>
        <mxCell id="FqQMGIi-P3rt23NI9rXm-16" value="" style="shape=message;html=1;outlineConnect=0;" vertex="1" parent="FqQMGIi-P3rt23NI9rXm-15">
          <mxGeometry width="20" height="14" relative="1" as="geometry">
            <mxPoint x="-10" y="-7" as="offset" />
          </mxGeometry>
        </mxCell>
        <mxCell id="FqQMGIi-P3rt23NI9rXm-17" value="" style="endArrow=classic;html=1;rounded=0;exitX=0;exitY=0.75;exitDx=0;exitDy=0;entryX=1;entryY=0.75;entryDx=0;entryDy=0;" edge="1" parent="1" source="FqQMGIi-P3rt23NI9rXm-3" target="FqQMGIi-P3rt23NI9rXm-4">
          <mxGeometry relative="1" as="geometry">
            <mxPoint x="290" y="490" as="sourcePoint" />
            <mxPoint x="390" y="490" as="targetPoint" />
          </mxGeometry>
        </mxCell>
        <mxCell id="FqQMGIi-P3rt23NI9rXm-18" value="" style="shape=message;html=1;outlineConnect=0;" vertex="1" parent="FqQMGIi-P3rt23NI9rXm-17">
          <mxGeometry width="20" height="14" relative="1" as="geometry">
            <mxPoint x="-10" y="-7" as="offset" />
          </mxGeometry>
        </mxCell>
        <mxCell id="FqQMGIi-P3rt23NI9rXm-19" value="" style="endArrow=classic;html=1;rounded=0;entryX=1;entryY=0.75;entryDx=0;entryDy=0;exitX=0;exitY=0.75;exitDx=0;exitDy=0;" edge="1" parent="1" source="FqQMGIi-P3rt23NI9rXm-4" target="FqQMGIi-P3rt23NI9rXm-6">
          <mxGeometry relative="1" as="geometry">
            <mxPoint x="270" y="420" as="sourcePoint" />
            <mxPoint x="390" y="490" as="targetPoint" />
          </mxGeometry>
        </mxCell>
        <mxCell id="FqQMGIi-P3rt23NI9rXm-20" value="" style="shape=message;html=1;outlineConnect=0;" vertex="1" parent="FqQMGIi-P3rt23NI9rXm-19">
          <mxGeometry width="20" height="14" relative="1" as="geometry">
            <mxPoint x="-10" y="-7" as="offset" />
          </mxGeometry>
        </mxCell>
        <mxCell id="FqQMGIi-P3rt23NI9rXm-22" value="ModelAndView" style="text;html=1;strokeColor=none;fillColor=none;align=center;verticalAlign=middle;whiteSpace=wrap;rounded=0;" vertex="1" parent="1">
          <mxGeometry x="160" y="420" width="130" height="30" as="geometry" />
        </mxCell>
        <mxCell id="FqQMGIi-P3rt23NI9rXm-23" value="" style="endArrow=classic;html=1;rounded=0;entryX=0.75;entryY=0;entryDx=0;entryDy=0;startArrow=none;" edge="1" parent="1" source="FqQMGIi-P3rt23NI9rXm-24" target="FqQMGIi-P3rt23NI9rXm-7">
          <mxGeometry width="50" height="50" relative="1" as="geometry">
            <mxPoint x="320" y="510" as="sourcePoint" />
            <mxPoint x="370" y="460" as="targetPoint" />
          </mxGeometry>
        </mxCell>
        <mxCell id="FqQMGIi-P3rt23NI9rXm-25" value="&lt;font style=&quot;font-size: 10px;&quot;&gt;prefix+ViewName+suffix&lt;/font&gt;" style="text;html=1;align=center;verticalAlign=middle;resizable=0;points=[];autosize=1;strokeColor=none;fillColor=none;" vertex="1" parent="1">
          <mxGeometry x="210" y="555" width="130" height="30" as="geometry" />
        </mxCell>
        <mxCell id="FqQMGIi-P3rt23NI9rXm-26" value="" style="endArrow=classic;html=1;rounded=0;exitX=0.5;exitY=0;exitDx=0;exitDy=0;entryX=0.5;entryY=1;entryDx=0;entryDy=0;" edge="1" parent="1" source="FqQMGIi-P3rt23NI9rXm-7" target="FqQMGIi-P3rt23NI9rXm-6">
          <mxGeometry width="50" height="50" relative="1" as="geometry">
            <mxPoint x="320" y="510" as="sourcePoint" />
            <mxPoint x="370" y="460" as="targetPoint" />
          </mxGeometry>
        </mxCell>
        <mxCell id="FqQMGIi-P3rt23NI9rXm-28" value="" style="endArrow=classic;html=1;rounded=0;exitX=0.25;exitY=1;exitDx=0;exitDy=0;entryX=0.75;entryY=0;entryDx=0;entryDy=0;startArrow=none;" edge="1" parent="1" source="FqQMGIi-P3rt23NI9rXm-34" target="FqQMGIi-P3rt23NI9rXm-5">
          <mxGeometry width="50" height="50" relative="1" as="geometry">
            <mxPoint x="60" y="620" as="sourcePoint" />
            <mxPoint x="110" y="570" as="targetPoint" />
          </mxGeometry>
        </mxCell>
        <mxCell id="FqQMGIi-P3rt23NI9rXm-31" value="" style="endArrow=classic;html=1;rounded=0;exitX=0.25;exitY=0;exitDx=0;exitDy=0;" edge="1" parent="1" source="FqQMGIi-P3rt23NI9rXm-5">
          <mxGeometry width="50" height="50" relative="1" as="geometry">
            <mxPoint x="50" y="490" as="sourcePoint" />
            <mxPoint x="100" y="440" as="targetPoint" />
          </mxGeometry>
        </mxCell>
        <mxCell id="FqQMGIi-P3rt23NI9rXm-35" value="" style="endArrow=none;html=1;rounded=0;entryX=0.75;entryY=0;entryDx=0;entryDy=0;" edge="1" parent="1" source="FqQMGIi-P3rt23NI9rXm-6" target="FqQMGIi-P3rt23NI9rXm-24">
          <mxGeometry width="50" height="50" relative="1" as="geometry">
            <mxPoint x="158.46153846153834" y="440.0000000000001" as="sourcePoint" />
            <mxPoint x="200" y="530" as="targetPoint" />
          </mxGeometry>
        </mxCell>
        <mxCell id="FqQMGIi-P3rt23NI9rXm-24" value="View" style="text;html=1;strokeColor=none;fillColor=none;align=center;verticalAlign=middle;whiteSpace=wrap;rounded=0;" vertex="1" parent="1">
          <mxGeometry x="150" y="470" width="60" height="30" as="geometry" />
        </mxCell>
        <mxCell id="FqQMGIi-P3rt23NI9rXm-36" value="" style="endArrow=none;html=1;rounded=0;exitX=0.25;exitY=1;exitDx=0;exitDy=0;entryX=0.75;entryY=0;entryDx=0;entryDy=0;" edge="1" parent="1" source="FqQMGIi-P3rt23NI9rXm-6" target="FqQMGIi-P3rt23NI9rXm-34">
          <mxGeometry width="50" height="50" relative="1" as="geometry">
            <mxPoint x="120" y="440.0000000000001" as="sourcePoint" />
            <mxPoint x="90" y="530" as="targetPoint" />
          </mxGeometry>
        </mxCell>
        <mxCell id="FqQMGIi-P3rt23NI9rXm-34" value="Model" style="text;html=1;align=center;verticalAlign=middle;resizable=0;points=[];autosize=1;strokeColor=none;fillColor=none;" vertex="1" parent="1">
          <mxGeometry x="70" y="470" width="60" height="30" as="geometry" />
        </mxCell>
        <mxCell id="FqQMGIi-P3rt23NI9rXm-37" value="" style="endArrow=classic;html=1;rounded=0;exitX=0;exitY=0.611;exitDx=0;exitDy=0;exitPerimeter=0;" edge="1" parent="1" source="FqQMGIi-P3rt23NI9rXm-6">
          <mxGeometry width="50" height="50" relative="1" as="geometry">
            <mxPoint x="320" y="510" as="sourcePoint" />
            <mxPoint x="-20" y="405" as="targetPoint" />
          </mxGeometry>
        </mxCell>
        <mxCell id="FqQMGIi-P3rt23NI9rXm-39" value="" style="endArrow=classic;html=1;rounded=0;fontSize=10;" edge="1" parent="1">
          <mxGeometry width="50" height="50" relative="1" as="geometry">
            <mxPoint x="-20" y="380" as="sourcePoint" />
            <mxPoint x="100" y="380" as="targetPoint" />
          </mxGeometry>
        </mxCell>
        <mxCell id="FqQMGIi-P3rt23NI9rXm-40" value="URL(ip:port), Method, parameter" style="text;html=1;strokeColor=none;fillColor=none;align=center;verticalAlign=middle;whiteSpace=wrap;rounded=0;fontSize=10;" vertex="1" parent="1">
          <mxGeometry x="-60" y="330" width="180" height="30" as="geometry" />
        </mxCell>
        <mxCell id="FqQMGIi-P3rt23NI9rXm-41" value="Request" style="ellipse;whiteSpace=wrap;html=1;aspect=fixed;fontSize=10;" vertex="1" parent="1">
          <mxGeometry x="-10" y="360" width="40" height="40" as="geometry" />
        </mxCell>
        <mxCell id="FqQMGIi-P3rt23NI9rXm-42" value="Response" style="ellipse;whiteSpace=wrap;html=1;aspect=fixed;fontSize=10;" vertex="1" parent="1">
          <mxGeometry x="40" y="360" width="40" height="40" as="geometry" />
        </mxCell>
        <mxCell id="FqQMGIi-P3rt23NI9rXm-47" value="Redirct&lt;br&gt;(DS에서 바로 응답)" style="text;html=1;align=center;verticalAlign=middle;resizable=0;points=[];autosize=1;strokeColor=none;fillColor=none;fontSize=10;" vertex="1" parent="1">
          <mxGeometry x="-10" y="390" width="110" height="40" as="geometry" />
        </mxCell>
        <mxCell id="FqQMGIi-P3rt23NI9rXm-49" value="Fowarding&lt;br&gt;(jsp를 거침)" style="text;html=1;align=center;verticalAlign=middle;resizable=0;points=[];autosize=1;strokeColor=none;fillColor=none;fontSize=10;" vertex="1" parent="1">
          <mxGeometry x="5" y="440" width="80" height="40" as="geometry" />
        </mxCell>
        <mxCell id="FqQMGIi-P3rt23NI9rXm-50" value="" style="endArrow=classic;html=1;rounded=0;fontSize=10;exitX=0.007;exitY=0.897;exitDx=0;exitDy=0;exitPerimeter=0;" edge="1" parent="1" source="FqQMGIi-P3rt23NI9rXm-6">
          <mxGeometry width="50" height="50" relative="1" as="geometry">
            <mxPoint x="370" y="500" as="sourcePoint" />
            <mxPoint x="-20" y="430" as="targetPoint" />
          </mxGeometry>
        </mxCell>
      </root>
    </mxGraphModel>
  </diagram>
  <diagram id="bPMXO4C8XbGzKdo8tmHt" name="페이지-2">
    <mxGraphModel dx="1509" dy="796" grid="1" gridSize="10" guides="1" tooltips="1" connect="1" arrows="1" fold="1" page="1" pageScale="1" pageWidth="1169" pageHeight="827" math="0" shadow="0">
      <root>
        <mxCell id="0" />
        <mxCell id="1" parent="0" />
        <mxCell id="dd86sk9YXWkYfN5iBjNa-2" value="ProductDAO" style="swimlane;fontStyle=1;align=center;verticalAlign=top;childLayout=stackLayout;horizontal=1;startSize=26;horizontalStack=0;resizeParent=1;resizeParentMax=0;resizeLast=0;collapsible=1;marginBottom=0;fontSize=10;" vertex="1" parent="1">
          <mxGeometry x="880" y="160" width="240" height="158" as="geometry" />
        </mxCell>
        <mxCell id="dd86sk9YXWkYfN5iBjNa-3" value="- sqlSession: SqlSession&#xa;- NAMESPACE : String" style="text;strokeColor=none;fillColor=none;align=left;verticalAlign=top;spacingLeft=4;spacingRight=4;overflow=hidden;rotatable=0;points=[[0,0.5],[1,0.5]];portConstraint=eastwest;fontSize=10;" vertex="1" parent="dd86sk9YXWkYfN5iBjNa-2">
          <mxGeometry y="26" width="240" height="54" as="geometry" />
        </mxCell>
        <mxCell id="dd86sk9YXWkYfN5iBjNa-4" value="" style="line;strokeWidth=1;fillColor=none;align=left;verticalAlign=middle;spacingTop=-1;spacingLeft=3;spacingRight=3;rotatable=0;labelPosition=right;points=[];portConstraint=eastwest;strokeColor=inherit;fontSize=10;" vertex="1" parent="dd86sk9YXWkYfN5iBjNa-2">
          <mxGeometry y="80" width="240" height="8" as="geometry" />
        </mxCell>
        <mxCell id="dd86sk9YXWkYfN5iBjNa-5" value="+ getProudctList(): List&lt;ProudctDTO&gt;&#xa;+ getProductDetail(ProductDTO): ProductDTO&#xa;+ setProductAdd(ProductDTO): int" style="text;strokeColor=none;fillColor=none;align=left;verticalAlign=top;spacingLeft=4;spacingRight=4;overflow=hidden;rotatable=0;points=[[0,0.5],[1,0.5]];portConstraint=eastwest;fontSize=10;" vertex="1" parent="dd86sk9YXWkYfN5iBjNa-2">
          <mxGeometry y="88" width="240" height="70" as="geometry" />
        </mxCell>
        <mxCell id="dd86sk9YXWkYfN5iBjNa-6" value="&lt;span style=&quot;font-size: 12px;&quot;&gt;Product&lt;/span&gt;" style="text;html=1;align=center;verticalAlign=middle;resizable=0;points=[];autosize=1;strokeColor=none;fillColor=none;fontSize=10;" vertex="1" parent="1">
          <mxGeometry x="570" y="70" width="60" height="30" as="geometry" />
        </mxCell>
        <mxCell id="dd86sk9YXWkYfN5iBjNa-8" value="ProductService" style="swimlane;fontStyle=1;align=center;verticalAlign=top;childLayout=stackLayout;horizontal=1;startSize=26;horizontalStack=0;resizeParent=1;resizeParentMax=0;resizeLast=0;collapsible=1;marginBottom=0;fontSize=12;" vertex="1" parent="1">
          <mxGeometry x="480" y="150" width="340" height="180" as="geometry" />
        </mxCell>
        <mxCell id="dd86sk9YXWkYfN5iBjNa-9" value="- productDAO: ProductDAO" style="text;strokeColor=none;fillColor=none;align=left;verticalAlign=top;spacingLeft=4;spacingRight=4;overflow=hidden;rotatable=0;points=[[0,0.5],[1,0.5]];portConstraint=eastwest;fontSize=12;" vertex="1" parent="dd86sk9YXWkYfN5iBjNa-8">
          <mxGeometry y="26" width="340" height="26" as="geometry" />
        </mxCell>
        <mxCell id="dd86sk9YXWkYfN5iBjNa-10" value="" style="line;strokeWidth=1;fillColor=none;align=left;verticalAlign=middle;spacingTop=-1;spacingLeft=3;spacingRight=3;rotatable=0;labelPosition=right;points=[];portConstraint=eastwest;strokeColor=inherit;fontSize=12;" vertex="1" parent="dd86sk9YXWkYfN5iBjNa-8">
          <mxGeometry y="52" width="340" height="8" as="geometry" />
        </mxCell>
        <mxCell id="dd86sk9YXWkYfN5iBjNa-11" value="+ getProudctList(): List&lt;ProudctDTO&gt;&#xa;+ getProductDetail(ProductDTO): ProductDTO&#xa;+ setProductAdd(ProductDTO,  List&lt;ProductOptionDTO): int" style="text;strokeColor=none;fillColor=none;align=left;verticalAlign=top;spacingLeft=4;spacingRight=4;overflow=hidden;rotatable=0;points=[[0,0.5],[1,0.5]];portConstraint=eastwest;fontSize=12;" vertex="1" parent="dd86sk9YXWkYfN5iBjNa-8">
          <mxGeometry y="60" width="340" height="120" as="geometry" />
        </mxCell>
        <mxCell id="dd86sk9YXWkYfN5iBjNa-13" value="ProductController" style="swimlane;fontStyle=1;align=center;verticalAlign=top;childLayout=stackLayout;horizontal=1;startSize=26;horizontalStack=0;resizeParent=1;resizeParentMax=0;resizeLast=0;collapsible=1;marginBottom=0;fontSize=12;" vertex="1" parent="1">
          <mxGeometry x="80" y="120" width="340" height="240" as="geometry" />
        </mxCell>
        <mxCell id="dd86sk9YXWkYfN5iBjNa-14" value="- productService: ProductService" style="text;strokeColor=none;fillColor=none;align=left;verticalAlign=top;spacingLeft=4;spacingRight=4;overflow=hidden;rotatable=0;points=[[0,0.5],[1,0.5]];portConstraint=eastwest;fontSize=12;" vertex="1" parent="dd86sk9YXWkYfN5iBjNa-13">
          <mxGeometry y="26" width="340" height="26" as="geometry" />
        </mxCell>
        <mxCell id="dd86sk9YXWkYfN5iBjNa-15" value="" style="line;strokeWidth=1;fillColor=none;align=left;verticalAlign=middle;spacingTop=-1;spacingLeft=3;spacingRight=3;rotatable=0;labelPosition=right;points=[];portConstraint=eastwest;strokeColor=inherit;fontSize=12;" vertex="1" parent="dd86sk9YXWkYfN5iBjNa-13">
          <mxGeometry y="52" width="340" height="8" as="geometry" />
        </mxCell>
        <mxCell id="dd86sk9YXWkYfN5iBjNa-16" value="+ getProudctList(): ModelAndView&#xa;+ getProductDetail(ProductDTO): String&#xa;+ setProductAdd(): void&#xa;+ setProductAdd(ProductDTO): String" style="text;strokeColor=none;fillColor=none;align=left;verticalAlign=top;spacingLeft=4;spacingRight=4;overflow=hidden;rotatable=0;points=[[0,0.5],[1,0.5]];portConstraint=eastwest;fontSize=12;" vertex="1" parent="dd86sk9YXWkYfN5iBjNa-13">
          <mxGeometry y="60" width="340" height="180" as="geometry" />
        </mxCell>
        <mxCell id="dd86sk9YXWkYfN5iBjNa-17" value="" style="edgeStyle=orthogonalEdgeStyle;rounded=0;orthogonalLoop=1;jettySize=auto;html=1;fontSize=12;" edge="1" parent="1" source="dd86sk9YXWkYfN5iBjNa-16" target="dd86sk9YXWkYfN5iBjNa-11">
          <mxGeometry relative="1" as="geometry" />
        </mxCell>
        <mxCell id="dd86sk9YXWkYfN5iBjNa-18" value="" style="edgeStyle=orthogonalEdgeStyle;rounded=0;orthogonalLoop=1;jettySize=auto;html=1;fontSize=12;entryX=0.003;entryY=0.351;entryDx=0;entryDy=0;entryPerimeter=0;" edge="1" parent="1" target="dd86sk9YXWkYfN5iBjNa-5">
          <mxGeometry relative="1" as="geometry">
            <mxPoint x="820" y="273" as="sourcePoint" />
          </mxGeometry>
        </mxCell>
        <mxCell id="dd86sk9YXWkYfN5iBjNa-20" value="Member" style="text;html=1;align=center;verticalAlign=middle;resizable=0;points=[];autosize=1;strokeColor=none;fillColor=none;fontSize=12;" vertex="1" parent="1">
          <mxGeometry x="565" y="390" width="70" height="30" as="geometry" />
        </mxCell>
        <mxCell id="dd86sk9YXWkYfN5iBjNa-21" value="MemberDAO" style="swimlane;fontStyle=1;align=center;verticalAlign=top;childLayout=stackLayout;horizontal=1;startSize=26;horizontalStack=0;resizeParent=1;resizeParentMax=0;resizeLast=0;collapsible=1;marginBottom=0;fontSize=12;" vertex="1" parent="1">
          <mxGeometry x="870" y="450" width="230" height="200" as="geometry" />
        </mxCell>
        <mxCell id="dd86sk9YXWkYfN5iBjNa-22" value="- sqlSession: SqlSession&#xa;- NAMESPACE: String" style="text;strokeColor=none;fillColor=none;align=left;verticalAlign=top;spacingLeft=4;spacingRight=4;overflow=hidden;rotatable=0;points=[[0,0.5],[1,0.5]];portConstraint=eastwest;fontSize=12;" vertex="1" parent="dd86sk9YXWkYfN5iBjNa-21">
          <mxGeometry y="26" width="230" height="94" as="geometry" />
        </mxCell>
        <mxCell id="dd86sk9YXWkYfN5iBjNa-23" value="" style="line;strokeWidth=1;fillColor=none;align=left;verticalAlign=middle;spacingTop=-1;spacingLeft=3;spacingRight=3;rotatable=0;labelPosition=right;points=[];portConstraint=eastwest;strokeColor=inherit;fontSize=12;" vertex="1" parent="dd86sk9YXWkYfN5iBjNa-21">
          <mxGeometry y="120" width="230" height="8" as="geometry" />
        </mxCell>
        <mxCell id="dd86sk9YXWkYfN5iBjNa-24" value="+ setMemberJoin(MemberDTO): int&#xa;+ getMemberList():List&lt;MemberDTO&gt;" style="text;strokeColor=none;fillColor=none;align=left;verticalAlign=top;spacingLeft=4;spacingRight=4;overflow=hidden;rotatable=0;points=[[0,0.5],[1,0.5]];portConstraint=eastwest;fontSize=12;" vertex="1" parent="dd86sk9YXWkYfN5iBjNa-21">
          <mxGeometry y="128" width="230" height="72" as="geometry" />
        </mxCell>
        <mxCell id="dd86sk9YXWkYfN5iBjNa-25" value="MemberService " style="swimlane;fontStyle=1;align=center;verticalAlign=top;childLayout=stackLayout;horizontal=1;startSize=26;horizontalStack=0;resizeParent=1;resizeParentMax=0;resizeLast=0;collapsible=1;marginBottom=0;fontSize=12;" vertex="1" parent="1">
          <mxGeometry x="480" y="470" width="240" height="150" as="geometry" />
        </mxCell>
        <mxCell id="dd86sk9YXWkYfN5iBjNa-26" value="- memberDAO:MemberDAO" style="text;strokeColor=none;fillColor=none;align=left;verticalAlign=top;spacingLeft=4;spacingRight=4;overflow=hidden;rotatable=0;points=[[0,0.5],[1,0.5]];portConstraint=eastwest;fontSize=12;" vertex="1" parent="dd86sk9YXWkYfN5iBjNa-25">
          <mxGeometry y="26" width="240" height="26" as="geometry" />
        </mxCell>
        <mxCell id="dd86sk9YXWkYfN5iBjNa-27" value="" style="line;strokeWidth=1;fillColor=none;align=left;verticalAlign=middle;spacingTop=-1;spacingLeft=3;spacingRight=3;rotatable=0;labelPosition=right;points=[];portConstraint=eastwest;strokeColor=inherit;fontSize=12;" vertex="1" parent="dd86sk9YXWkYfN5iBjNa-25">
          <mxGeometry y="52" width="240" height="8" as="geometry" />
        </mxCell>
        <mxCell id="dd86sk9YXWkYfN5iBjNa-28" value="+ setMebmerJoin(MemberDTO): int&#xa;" style="text;strokeColor=none;fillColor=none;align=left;verticalAlign=top;spacingLeft=4;spacingRight=4;overflow=hidden;rotatable=0;points=[[0,0.5],[1,0.5]];portConstraint=eastwest;fontSize=12;" vertex="1" parent="dd86sk9YXWkYfN5iBjNa-25">
          <mxGeometry y="60" width="240" height="90" as="geometry" />
        </mxCell>
        <mxCell id="dd86sk9YXWkYfN5iBjNa-29" value="MemberController" style="swimlane;fontStyle=1;align=center;verticalAlign=top;childLayout=stackLayout;horizontal=1;startSize=26;horizontalStack=0;resizeParent=1;resizeParentMax=0;resizeLast=0;collapsible=1;marginBottom=0;fontSize=12;" vertex="1" parent="1">
          <mxGeometry x="110" y="460" width="230" height="170" as="geometry" />
        </mxCell>
        <mxCell id="dd86sk9YXWkYfN5iBjNa-30" value="- memberService:MemberService" style="text;strokeColor=none;fillColor=none;align=left;verticalAlign=top;spacingLeft=4;spacingRight=4;overflow=hidden;rotatable=0;points=[[0,0.5],[1,0.5]];portConstraint=eastwest;fontSize=12;" vertex="1" parent="dd86sk9YXWkYfN5iBjNa-29">
          <mxGeometry y="26" width="230" height="26" as="geometry" />
        </mxCell>
        <mxCell id="dd86sk9YXWkYfN5iBjNa-31" value="" style="line;strokeWidth=1;fillColor=none;align=left;verticalAlign=middle;spacingTop=-1;spacingLeft=3;spacingRight=3;rotatable=0;labelPosition=right;points=[];portConstraint=eastwest;strokeColor=inherit;fontSize=12;" vertex="1" parent="dd86sk9YXWkYfN5iBjNa-29">
          <mxGeometry y="52" width="230" height="8" as="geometry" />
        </mxCell>
        <mxCell id="dd86sk9YXWkYfN5iBjNa-32" value="+ setMemberJoin(): void&#xa;+ setMemberJoin(MemberDTO): String" style="text;strokeColor=none;fillColor=none;align=left;verticalAlign=top;spacingLeft=4;spacingRight=4;overflow=hidden;rotatable=0;points=[[0,0.5],[1,0.5]];portConstraint=eastwest;fontSize=12;" vertex="1" parent="dd86sk9YXWkYfN5iBjNa-29">
          <mxGeometry y="60" width="230" height="110" as="geometry" />
        </mxCell>
        <mxCell id="dd86sk9YXWkYfN5iBjNa-36" value="" style="endArrow=classic;html=1;rounded=0;fontSize=12;entryX=0.006;entryY=0.354;entryDx=0;entryDy=0;entryPerimeter=0;" edge="1" parent="1" target="dd86sk9YXWkYfN5iBjNa-28">
          <mxGeometry width="50" height="50" relative="1" as="geometry">
            <mxPoint x="340" y="560" as="sourcePoint" />
            <mxPoint x="760" y="400" as="targetPoint" />
          </mxGeometry>
        </mxCell>
        <mxCell id="dd86sk9YXWkYfN5iBjNa-37" value="" style="endArrow=classic;html=1;rounded=0;fontSize=12;entryX=-0.005;entryY=0.891;entryDx=0;entryDy=0;entryPerimeter=0;" edge="1" parent="1" target="dd86sk9YXWkYfN5iBjNa-22">
          <mxGeometry width="50" height="50" relative="1" as="geometry">
            <mxPoint x="720" y="560" as="sourcePoint" />
            <mxPoint x="760" y="400" as="targetPoint" />
          </mxGeometry>
        </mxCell>
      </root>
    </mxGraphModel>
  </diagram>
</mxfile>
